<?xml version="1.0" encoding="iso-8859-1"?>
<!-- Generator: Adobe Illustrator 16.0.0, SVG Export Plug-In . SVG Version: 6.00 Build 0)  -->
<!DOCTYPE svg PUBLIC "-//W3C//DTD SVG 1.1//EN" "http://www.w3.org/Graphics/SVG/1.1/DTD/svg11.dtd">
<svg xmlns="http://www.w3.org/2000/svg" xmlns:xlink="http://www.w3.org/1999/xlink" version="1.1" id="Capa_1" x="0px" y="0px" width="512px" height="512px" viewBox="0 0 32.002 32.002" style="enable-background:new 0 0 32.002 32.002;" xml:space="preserve">
<g>
	<g id="wallet">
		<g>
			<path d="M30.984,13.797l-0.213-0.42h-1.9c-0.365-2.504-0.816-4.354-0.848-4.482l-0.201-0.814h-2.713l-3.08-6.43l-11.135,6.43     H1.993L1.761,8.836C1.688,9.07,0,14.611,0,19.29c0,4.681,1.69,10.088,1.763,10.313l0.236,0.748h25.823l0.201-0.812     c0.035-0.145,0.576-2.365,0.953-5.254h-2.164c-0.229,1.666-0.506,3.086-0.688,3.926H3.587c-0.451-1.613-1.445-5.549-1.445-8.922     c0-3.388,1-7.419,1.45-9.065h22.535c0.15,0.707,0.371,1.826,0.574,3.154h-9.486l-0.186,0.498c-0.042,0.109-1.01,2.717-1.01,4.949     c0,2.229,0.969,4.838,1.01,4.947l0.186,0.498h13.557l0.213-0.419c0.041-0.082,1.018-2.037,1.018-5.024     C32,15.834,31.025,13.879,30.984,13.797z M29.789,22.732h-11.49c-0.264-0.815-0.742-2.491-0.742-3.907     c0-1.418,0.479-3.095,0.742-3.911h11.49c0.248,0.662,0.672,2.063,0.672,3.911C30.461,20.668,30.037,22.07,29.789,22.732z" fill="#447fc7"/>
			<circle cx="21.615" cy="18.823" r="2.034" fill="#447fc7"/>
		</g>
	</g>
</g>
<g>
</g>
<g>
</g>
<g>
</g>
<g>
</g>
<g>
</g>
<g>
</g>
<g>
</g>
<g>
</g>
<g>
</g>
<g>
</g>
<g>
</g>
<g>
</g>
<g>
</g>
<g>
</g>
<g>
</g>
</svg>
